
<svg width="157px" height="92px" viewBox="200 685 157 92" version="1.1" xmlns="http://www.w3.org/2000/svg" xmlns:xlink="http://www.w3.org/1999/xlink">
    <!-- Generator: Sketch 41.1 (35376) - http://www.bohemiancoding.com/sketch -->
    <desc>Created with Sketch.</desc>
    <defs>
        <polygon id="path-1" points="0 0.355915219 0 4.14385872 7.63510701 4.14385872 7.63510701 0.355915219 1.87205433e-20 0.355915219"></polygon>
        <polygon id="path-3" points="1.93110253 1.34762778 1.93110253 0.568556369 0.346921603 0.568556369 0.346921603 1.34762778 1.93110253 1.34762778"></polygon>
    </defs>
    <text id="n°-data-points" stroke="none" fill="none" font-family="Chivo-Regular, Chivo" font-size="10" font-weight="normal" line-spacing="9">
        <tspan x="274.845937" y="722.426287" fill="#162933">n° data points</tspan>
    </text>
    <polygon id="Fill-1" stroke="none" fill="#D7E3E5" fill-rule="evenodd" opacity="0.535099638" points="202.691195 753.198288 232.490498 766.362327 261.897208 753.590326 232.09846 740.426287"></polygon>
    <g id="Group-19" opacity="0.535099638" stroke="none" stroke-width="1" fill="none" fill-rule="evenodd" transform="translate(202.000000, 686.935374)">
        <polygon id="Stroke-2" stroke="#FFFFFF" points="59.897652 66.6550625 30.490387 79.4270636 0.691084312 66.2630248 30.0983493 53.4910237"></polygon>
        <g id="Group-8" transform="translate(0.554509, 0.000000)">
            <polygon id="Fill-4" fill="#D7E3E5" points="59.3431432 13.4222181 29.9358782 26.1942192 0.136575516 13.0301804 29.5438405 0.258179295"></polygon>
            <polygon id="Stroke-6" stroke="#FFFFFF" points="59.3431432 13.4222181 29.9358782 26.1942192 0.136575516 13.0301804 29.5438405 0.258179295"></polygon>
        </g>
        <g id="Group-13" transform="translate(0.000000, 12.753702)">
            <polygon id="Fill-9" fill="#D7E3E5" points="0.350837715 0.472441494 0.350837715 53.7052859 30.2943127 66.6735831 30.2943127 13.2261438"></polygon>
            <polygon id="Stroke-11" stroke="#FFFFFF" points="0.350837715 0.472441494 0.350837715 53.7052859 30.2943127 66.6735831 30.2943127 13.2261438"></polygon>
        </g>
        <g id="Group-18" transform="translate(29.943475, 12.753702)">
            <polygon id="Fill-14" fill="#D7E3E5" points="30.2943127 0.472441494 30.2943127 53.7052859 0.350837715 66.6735831 0.350837715 13.2261438"></polygon>
            <polygon id="Stroke-16" stroke="#FFFFFF" points="30.2943127 0.472441494 30.2943127 53.7052859 0.350837715 66.6735831 0.350837715 13.2261438"></polygon>
        </g>
    </g>
    <path d="M266,756.961058 L236.056525,769.929355 L266,756.961058 Z" id="Fill-14" stroke="#6B6B6B" stroke-width="1" stroke-linecap="round" fill="none"></path>
    <path d="M266.5,754.5 L266.5,701.490567" id="Line" stroke="#6B6B6B" stroke-width="1" fill="none"></path>
    <g id="Page-1" stroke="none" stroke-width="1" fill="none" fill-rule="evenodd" transform="translate(256.450098, 768.330471) rotate(2.000000) translate(-256.450098, -768.330471) translate(241.950098, 760.830471)">
        <g id="Group-3" transform="translate(0.000000, 9.172599)">
            <mask id="mask-2" fill="white">
                <use xlink:href="#path-1"></use>
            </mask>
            <g id="Clip-2"></g>
            <path d="M3.60368873,4.06236012 C3.31844362,3.92008289 3.15130241,3.73981903 3.10364645,3.52294986 C3.07049447,3.38274463 3.09121445,3.23908608 3.1637344,3.09266485 L3.7777366,1.79075917 C3.9041285,1.49791673 3.86683253,1.27759423 3.66723002,1.12910101 C3.60576073,1.08282638 3.54014745,1.04207708 3.46693684,1.00547177 C3.39994222,0.971629129 3.30739296,0.939167821 3.19205171,0.908087844 C3.07532913,0.877698534 2.9392679,0.859741214 2.78041469,0.856287884 C2.38397232,0.853525219 1.99719928,0.942621151 1.61871424,1.12564768 C1.1483706,1.35425817 0.954293409,1.58701266 1.03855468,1.82252982 C1.08621064,1.95928171 1.18773857,2.06633497 1.34244778,2.14368957 L1.43706904,2.19065487 C1.46469569,2.20446819 1.49439433,2.21620952 1.52685564,2.22795084 L0.721538919,2.61748655 C0.684933614,2.60505456 0.659378966,2.59469456 0.64625631,2.5877879 L0.591693684,2.56085192 C0.297469908,2.41374004 0.108918051,2.22656951 0.0288007781,1.99795902 C-0.0561511574,1.76727653 0.0460674317,1.51863671 0.335456545,1.25411158 C0.486712431,1.11321569 0.725682916,0.964031802 1.05444,0.804487923 C1.38319708,0.644944044 1.70988217,0.53098413 2.03725792,0.461917516 C2.36325234,0.393541568 2.66507344,0.357626929 2.9434119,0.356245596 C3.47108083,0.350029601 3.90550984,0.431528206 4.24462691,0.600741411 C4.5305627,0.743018636 4.70046657,0.877698534 4.75710119,1.00132777 C4.85310378,1.2271756 4.83100247,1.4965354 4.69079724,1.80940716 L4.11547234,3.06572887 C4.05538439,3.17001946 4.02223241,3.25151807 4.01601642,3.31022469 C4.00910976,3.36893131 4.01739775,3.40484595 4.04018973,3.41589661 L7.03008347,1.96549771 L7.63510701,2.26662815 L3.76668594,4.14385872 L3.60368873,4.06236012 Z" id="Fill-1" fill="#000000" mask="url(#mask-2)"></path>
        </g>
        <path d="M8.68823474,7.77172077 C8.4299256,7.6425662 8.10600318,7.58593158 7.71577681,7.6018169 C7.32555044,7.61701155 6.96571338,7.70403549 6.63764696,7.86427003 C6.31441521,8.02036058 6.13138868,8.19648045 6.08925805,8.39055763 C6.04367408,8.57772816 6.15418066,8.73727204 6.42146846,8.87126127 L8.17645113,9.74564461 C8.44373893,9.87963384 8.76835201,9.93626846 9.14890906,9.91554848 C9.54535142,9.89759116 9.90380715,9.80987656 10.2277296,9.65378601 C10.555796,9.49424213 10.7388225,9.31881293 10.7754278,9.12680774 C10.8120331,8.93549322 10.7015265,8.77525868 10.4432174,8.64610411 L8.68823474,7.77172077 Z M11.2001875,8.23170442 C11.6532645,8.45824292 11.8494137,8.73312804 11.7865631,9.05705046 C11.7257844,9.37682889 11.4239633,9.66829 10.8817904,9.9314338 L10.7754278,9.98323376 C10.2277296,10.2491402 9.63168469,10.3934894 8.98591185,10.4162814 C8.32632568,10.4376921 7.77172077,10.3361642 7.32347844,10.113079 L5.67140503,9.28911429 C5.21280271,9.06119446 5.01527219,8.78630933 5.07674148,8.46376824 C5.13821077,8.14191782 5.43726921,7.85045671 5.97460747,7.59007557 L6.08097005,7.53827561 C6.61209232,7.28065714 7.21089986,7.13768925 7.87739269,7.10868127 C8.52938153,7.0776013 9.08605844,7.17843855 9.54880475,7.40912104 L11.2001875,8.23170442 Z" id="Fill-4" fill="#000000"></path>
        <path d="M13.7394216,5.32130636 C13.4811124,5.19215179 13.15719,5.13551717 12.7669636,5.15071183 C12.3767373,5.16659715 12.0169002,5.25362108 11.6888338,5.41316496 C11.365602,5.56994617 11.1825755,5.74537537 11.1411355,5.94014323 C11.0948609,6.12731375 11.2060582,6.28685763 11.4726553,6.42084686 L13.227638,7.2952302 C13.4949258,7.42921943 13.8195388,7.48516339 14.2000959,7.46513407 C14.5965383,7.44717675 14.9556847,7.35946215 15.2789164,7.2033716 C15.6069828,7.04382772 15.7907,6.86770786 15.8266147,6.67639333 C15.86322,6.48507881 15.7527134,6.3241536 15.4944042,6.1956897 L13.7394216,5.32130636 Z M16.2513743,5.78129001 C16.7044513,6.00713784 16.9006005,6.28271363 16.8377499,6.60663605 C16.7769713,6.92641448 16.4751502,7.21787559 15.9336679,7.48101939 L15.8266147,7.53281935 C15.2789164,7.79872582 14.6828715,7.94307504 14.0370987,7.96586702 C13.3775125,7.98658701 12.8235983,7.88574975 12.3746653,7.66266459 L10.7232825,6.83869988 C10.2646802,6.61008938 10.066459,6.33520426 10.128619,6.01335384 C10.1893976,5.69081275 10.488456,5.39935164 11.0257943,5.1389705 L11.1328476,5.08717054 C11.6632792,4.82955207 12.2620867,4.68658418 12.9285795,4.65826687 C13.5805684,4.62718689 14.1372453,4.72733348 14.5999916,4.95801597 L16.2513743,5.78129001 Z" id="Fill-6" fill="#000000"></path>
        <path d="M21.3215545,2.61327348 C20.7821442,2.34322302 20.2600006,2.3314817 19.756505,2.57528685 C19.4885265,2.70651341 19.3497027,2.86398529 19.340724,3.05184648 C19.3331267,3.23832634 19.4643532,3.39994222 19.7364757,3.53600345 L21.8036395,4.56578667 L21.0314747,4.94012772 L17.5567333,3.20793703 L18.1147916,2.9371959 L18.7322471,3.14025175 C18.6700872,2.79146535 18.9173456,2.48135625 19.4760946,2.20992446 C20.0286275,1.94125533 20.6060244,1.85215939 21.2048319,1.93987399 C21.1716799,1.72507682 21.2283146,1.5441223 21.3754264,1.39908241 C21.5225383,1.25404252 21.7021115,1.13041328 21.9155274,1.02612269 C22.1234179,0.925976097 22.3340711,0.847240157 22.5461056,0.790605533 C22.7581401,0.735352242 22.9743186,0.702890933 23.1939504,0.69460294 C23.6553154,0.670429625 24.0876724,0.759525557 24.4910214,0.960509405 L26.8303076,2.12704452 L26.0581429,2.50138557 L23.8348886,1.39355708 C23.2954783,1.12419728 22.7740254,1.11176529 22.2698391,1.35695177 C22.0018606,1.48679701 21.8623461,1.64565022 21.8547488,1.83213008 C21.8464608,2.0193006 21.9776873,2.18022581 22.2498098,2.31628704 L24.3169735,3.34676093 L23.5448088,3.72110198 L21.3215545,2.61327348 Z" id="Fill-8" fill="#000000"></path>
        <g id="Group-12" transform="translate(26.935980, 0.193939)">
            <mask id="mask-4" fill="white">
                <use xlink:href="#path-3"></use>
            </mask>
            <g id="Clip-11"></g>
            <polygon id="Fill-10" fill="#000000" mask="url(#mask-4)" points="0.346921603 0.97121473 1.17641164 0.568556369 1.93130973 0.944969416 1.1018197 1.34762778"></polygon>
        </g>
    </g>
</svg>
