
<svg width="95px" height="21px" viewBox="851 709 95 21" version="1.1" xmlns="http://www.w3.org/2000/svg" xmlns:xlink="http://www.w3.org/1999/xlink">
    <!-- Generator: Sketch 40.3 (33839) - http://www.bohemiancoding.com/sketch -->
    <desc>Created with Sketch.</desc>
    <defs></defs>
    <path d="M868.537388,728.768851 L868.537388,723.802851 L868.433388,723.776851 L863.857388,728.716851 C863.181388,728.872851 862.453388,728.976851 861.829388,728.976851 C857.201388,728.976851 855.121388,724.400851 855.121388,719.694851 C855.121388,714.416851 857.955388,710.984851 861.803388,710.984851 C862.557388,710.984851 863.207388,711.088851 863.831388,711.296851 L868.329388,716.132851 L868.433388,716.132851 L868.433388,711.192851 C866.535388,710.334851 864.091388,709.944851 862.011388,709.944851 C857.305388,709.944851 851.039388,713.012851 851.039388,719.850851 C851.039388,726.454851 856.057388,729.964851 861.595388,729.964851 C864.065388,729.964851 866.405388,729.678851 868.537388,728.768851 L868.537388,728.768851 Z M877.325388,728.274851 C875.999388,728.274851 875.219388,727.416851 875.219388,726.064851 C875.219388,725.258851 875.505388,724.712851 875.765388,724.322851 L879.431388,722.736851 L879.431388,727.338851 C878.911388,727.832851 878.131388,728.274851 877.325388,728.274851 L877.325388,728.274851 Z M879.535388,729.704851 L885.047388,729.704851 L885.047388,729.548851 L883.175388,728.040851 L883.175388,722.788851 C883.175388,719.252851 882.681388,716.678851 877.949388,716.678851 C876.103388,716.678851 874.309388,716.808851 872.333388,716.938851 L872.333388,721.566851 L872.437388,721.566851 L875.947388,717.510851 L876.259388,717.510851 C878.729388,717.510851 879.431388,718.654851 879.431388,721.670851 L879.431388,722.112851 L872.463388,723.932851 C872.047388,724.400851 871.449388,725.414851 871.449388,726.636851 C871.449388,728.300851 872.775388,729.964851 875.271388,729.964851 C877.117388,729.964851 878.599388,728.950851 879.535388,727.988851 L879.535388,729.704851 Z M887.829388,728.092851 L885.957388,729.548851 L885.957388,729.704851 L893.393388,729.704851 L893.393388,729.548851 L891.521388,728.092851 L891.521388,710.204851 L885.853388,710.204851 L885.853388,710.360851 L887.829388,712.284851 L887.829388,728.092851 Z M898.255388,714.442851 C899.451388,714.442851 900.491388,713.636851 900.491388,712.284851 C900.491388,711.010851 899.451388,710.126851 898.255388,710.126851 C897.059388,710.126851 896.045388,711.010851 896.045388,712.284851 C896.045388,713.636851 897.059388,714.442851 898.255388,714.442851 L898.255388,714.442851 Z M901.973388,729.704851 L901.973388,729.548851 L900.101388,728.040851 L900.101388,716.938851 L894.511388,716.938851 L894.511388,717.094851 L896.383388,718.836851 L896.383388,728.040851 L894.511388,729.548851 L894.511388,729.704851 L901.973388,729.704851 Z M917.859388,722.736851 C917.859388,719.564851 916.273388,716.678851 912.191388,716.678851 C910.761388,716.678851 909.591388,717.406851 908.239388,718.342851 L908.239388,710.204851 L902.649388,710.204851 L902.649388,710.360851 L904.521388,712.284851 L904.521388,729.704851 L910.215388,729.704851 C914.193388,729.704851 917.859388,727.702851 917.859388,722.736851 L917.859388,722.736851 Z M910.449388,728.872851 C909.695388,728.872851 909.071388,728.508851 908.239388,728.092851 L908.239388,719.096851 C909.175388,718.680851 909.825388,718.420851 910.553388,718.420851 C912.815388,718.420851 914.011388,720.136851 914.011388,723.204851 C914.011388,726.532851 912.529388,728.872851 910.449388,728.872851 L910.449388,728.872851 Z M927.635388,729.548851 L925.269388,728.040851 L925.269388,721.332851 C925.269388,720.162851 925.893388,719.486851 926.647388,719.148851 L930.053388,721.098851 L930.157388,721.098851 L930.157388,716.678851 C927.973388,716.756851 926.127388,717.770851 925.191388,719.408851 L925.139388,719.408851 L925.139388,716.938851 L919.679388,716.938851 L919.679388,717.094851 L921.551388,718.810851 L921.551388,728.040851 L919.679388,729.548851 L919.679388,729.704851 L927.635388,729.704851 L927.635388,729.548851 Z M938.425388,729.964851 C942.221388,729.964851 945.731388,727.416851 945.731388,723.230851 C945.731388,719.512851 942.793388,716.678851 938.789388,716.678851 C934.993388,716.678851 931.483388,719.226851 931.483388,723.438851 C931.483388,727.156851 934.447388,729.964851 938.425388,729.964851 L938.425388,729.964851 Z M938.971388,729.132851 C936.631388,729.132851 935.435388,725.882851 935.435388,722.710851 C935.435388,719.876851 936.319388,717.510851 938.269388,717.510851 C940.687388,717.510851 941.805388,720.760851 941.805388,723.776851 C941.805388,726.766851 940.791388,729.132851 938.971388,729.132851 L938.971388,729.132851 Z" id="Calibro" stroke="none" fill="#FFFFFF" fill-rule="evenodd"></path>
</svg>
