<svg width="88px" height="35px" viewBox="0 0 88 35" version="1.1" xmlns="http://www.w3.org/2000/svg" xmlns:xlink="http://www.w3.org/1999/xlink">
    <!-- Generator: Sketch 40.3 (33839) - http://www.bohemiancoding.com/sketch -->
    <desc>Created with Sketch.</desc>
    <defs></defs>
    <g id="CDL_logo_newversions2-04" stroke="none" stroke-width="1" fill="none" fill-rule="evenodd" transform="translate(0.000000, 0.993024)">
        <path d="M36.9234522,5.84818071 L38.082162,6.14084451 C37.8392697,7.09250434 37.4022693,7.81818385 36.7711476,8.3179048 C36.1400259,8.81762576 35.3685559,9.06748249 34.4567145,9.06748249 C33.5130184,9.06748249 32.7455302,8.87536158 32.1542269,8.49111399 C31.5629236,8.1068664 31.1129824,7.55041257 30.8043898,6.82173579 C30.4957971,6.09305902 30.3415032,5.31063914 30.3415032,4.47445268 C30.3415032,3.56261125 30.5157061,2.76725059 30.8641171,2.08834682 C31.2125281,1.40944305 31.7082598,0.893802465 32.351327,0.5414096 C32.9943942,0.189016734 33.7021557,0.0128229441 34.4746327,0.0128229441 C35.3506376,0.0128229441 36.087267,0.235802656 36.684543,0.681768768 C37.2818191,1.12773488 37.6979151,1.75486532 37.9328437,2.5631789 L36.7920522,2.83195177 C36.5889783,2.19485733 36.2943266,1.73097989 35.908088,1.44030555 C35.5218495,1.14963121 35.0360723,1.00429622 34.4507418,1.00429622 C33.7778108,1.00429622 33.2153843,1.16555833 32.7634454,1.4880874 C32.3115065,1.81061646 31.9939595,2.24363509 31.8107949,2.78715629 C31.6276302,3.33067749 31.5360493,3.89111311 31.5360493,4.46847995 C31.5360493,5.21308408 31.6445528,5.86310976 31.8615631,6.41857648 C32.0785734,6.9740432 32.4160293,7.38914382 32.8739409,7.6638908 C33.3318525,7.93863778 33.8275842,8.07600921 34.3611508,8.07600921 C35.0101908,8.07600921 35.5596765,7.88886553 36.0096245,7.51457254 C36.4595724,7.14027955 36.7641786,6.58482117 36.9234522,5.84818071 L36.9234522,5.84818071 Z M40.0313045,8.91816422 L40.0313045,0.162141208 L41.1900142,0.162141208 L41.1900142,8.91816422 L40.0313045,8.91816422 Z M45.7850763,8.91816422 L45.7850763,1.1954236 L42.9002475,1.1954236 L42.9002475,0.162141208 L49.8405604,0.162141208 L49.8405604,1.1954236 L46.9437861,1.1954236 L46.9437861,8.91816422 L45.7850763,8.91816422 Z M51.5507936,8.91816422 L51.5507936,0.162141208 L52.7095034,0.162141208 L52.7095034,8.91816422 L51.5507936,8.91816422 Z M54.3779275,8.91816422 L54.3779275,7.84307272 L58.8634482,2.23467872 C59.1819954,1.83649469 59.4846107,1.49007978 59.7713032,1.1954236 L54.8856096,1.1954236 L54.8856096,0.162141208 L61.1569767,0.162141208 L61.1569767,1.1954236 L56.2414195,7.26969059 L55.7098464,7.88488184 L61.3003223,7.88488184 L61.3003223,8.91816422 L54.3779275,8.91816422 Z M62.8970736,8.91816422 L62.8970736,0.162141208 L69.228168,0.162141208 L69.228168,1.1954236 L64.0557834,1.1954236 L64.0557834,3.87717962 L68.8996679,3.87717962 L68.8996679,4.90448928 L64.0557834,4.90448928 L64.0557834,7.88488184 L69.4312409,7.88488184 L69.4312409,8.91816422 L62.8970736,8.91816422 Z M71.344547,8.91816422 L71.344547,0.162141208 L72.5331204,0.162141208 L77.1321229,7.0367541 L77.1321229,0.162141208 L78.2430508,0.162141208 L78.2430508,8.91816422 L77.0544774,8.91816422 L72.4554749,2.03757861 L72.4554749,8.91816422 L71.344547,8.91816422 Z" id="CITIZEN-" fill="#FFFFFF"></path>
        <path d="M30.6759761,25.2272928 L30.6759761,16.4712697 L33.692205,16.4712697 C34.3730997,16.4712697 34.8927221,16.5130784 35.2510877,16.5966971 C35.7527996,16.7121705 36.180841,16.9212139 36.5352248,17.2238338 C36.9971182,17.6140541 37.3425377,18.1127722 37.5714935,18.7200028 C37.8004493,19.3272335 37.9149255,20.0210587 37.9149255,20.8014994 C37.9149255,21.4664667 37.8372808,22.0557703 37.681989,22.5694277 C37.5266973,23.0830851 37.3276082,23.5081401 37.084716,23.8446056 C36.8418237,24.1810711 36.5760399,24.4458595 36.2873564,24.6389788 C35.998673,24.8320981 35.6502672,24.9784285 35.2421286,25.0779745 C34.83399,25.1775205 34.3651353,25.2272928 33.8355505,25.2272928 L30.6759761,25.2272928 Z M31.8346858,24.1940104 L33.7041505,24.1940104 C34.2815173,24.1940104 34.7344448,24.1402563 35.0629467,24.0327467 C35.3914485,23.925237 35.6532506,23.7739293 35.8483607,23.5788191 C36.1231077,23.3040721 36.3371284,22.934762 36.4904293,22.4708776 C36.6437301,22.0069932 36.7203794,21.4445667 36.7203794,20.7835812 C36.7203794,19.867758 36.5700672,19.1639782 36.2694382,18.672221 C35.9688093,18.1804637 35.6034809,17.8509713 35.1734422,17.6837341 C34.8628586,17.5642788 34.3631452,17.5045521 33.6742868,17.5045521 L31.8346858,17.5045521 L31.8346858,24.1940104 Z M38.8436453,25.2272928 L42.2062926,16.4712697 L43.4545933,16.4712697 L47.0382316,25.2272928 L45.7182582,25.2272928 L44.6969213,22.5754004 L41.0356374,22.5754004 L40.0740278,25.2272928 L38.8436453,25.2272928 Z M41.3701103,21.631709 L44.3385574,21.631709 L43.4247296,19.2067803 C43.1460008,18.4701399 42.9389482,17.8649093 42.8035657,17.3910703 C42.6920741,17.9525097 42.5347938,18.509959 42.33172,19.0634348 L41.3701103,21.631709 Z M48.9569721,25.2272928 L48.9569721,17.5045521 L46.0721433,17.5045521 L46.0721433,16.4712697 L53.0124562,16.4712697 L53.0124562,17.5045521 L50.1156819,17.5045521 L50.1156819,25.2272928 L48.9569721,25.2272928 Z M52.0180141,25.2272928 L55.3806614,16.4712697 L56.6289621,16.4712697 L60.2126004,25.2272928 L58.892627,25.2272928 L57.87129,22.5754004 L54.2100062,22.5754004 L53.2483966,25.2272928 L52.0180141,25.2272928 Z M54.5444791,21.631709 L57.5129262,21.631709 L56.5990984,19.2067803 C56.3203696,18.4701399 56.113317,17.8649093 55.9779344,17.3910703 C55.8664429,17.9525097 55.7091626,18.509959 55.5060887,19.0634348 L54.5444791,21.631709 Z M64.3442169,25.2272928 L64.3442169,16.4712697 L65.5029266,16.4712697 L65.5029266,24.1940104 L69.8152381,24.1940104 L69.8152381,25.2272928 L64.3442169,25.2272928 Z M71.1405472,25.2272928 L74.5031945,16.4712697 L75.7514952,16.4712697 L79.3351335,25.2272928 L78.0151601,25.2272928 L76.9938231,22.5754004 L73.3325393,22.5754004 L72.3709297,25.2272928 L71.1405472,25.2272928 Z M73.6670122,21.631709 L76.6354593,21.631709 L75.7216315,19.2067803 C75.4429027,18.4701399 75.2358501,17.8649093 75.1004675,17.3910703 C74.988976,17.9525097 74.8316957,18.509959 74.6286218,19.0634348 L73.6670122,21.631709 Z M80.9087266,25.2272928 L80.9087266,16.4712697 L84.1937285,16.4712697 C84.8626776,16.4712697 85.3992225,16.5598644 85.8033793,16.7370563 C86.2075361,16.9142482 86.5240877,17.1870001 86.7530435,17.5553203 C86.9819993,17.9236406 87.0964755,18.3088778 87.0964755,18.7110437 C87.0964755,19.0853367 86.9949401,19.4377243 86.7918662,19.768217 C86.5887924,20.0987098 86.2821953,20.3654891 85.8720657,20.5685629 C86.4016505,20.7238547 86.8087876,20.9886431 87.0934891,21.3629361 C87.3781907,21.7372291 87.5205394,22.1792067 87.5205394,22.6888823 C87.5205394,23.0990118 87.4339357,23.4802673 87.2607256,23.8326602 C87.0875155,24.185053 86.8734948,24.4568096 86.6186571,24.6479379 C86.3638193,24.8390662 86.0442814,24.9834058 85.6600338,25.0809609 C85.2757862,25.178516 84.8049407,25.2272928 84.247483,25.2272928 L80.9087266,25.2272928 Z M82.0674364,20.1504718 L83.960792,20.1504718 C84.4744494,20.1504718 84.8427641,20.1166266 85.0657471,20.0489354 C85.3604033,19.9613349 85.5823876,19.8159999 85.7317066,19.612926 C85.8810256,19.4098522 85.955684,19.1550182 85.955684,18.8484165 C85.955684,18.5577422 85.8860028,18.3019128 85.7466384,18.0809206 C85.607274,17.8599285 85.408185,17.7086208 85.1493653,17.6269931 C84.8905457,17.5453654 84.4465772,17.5045521 83.8174464,17.5045521 L82.0674364,17.5045521 L82.0674364,20.1504718 Z M82.0674364,24.1940104 L84.247483,24.1940104 C84.621776,24.1940104 84.8845735,24.1800741 85.0358835,24.1522013 C85.3026668,24.1044192 85.5256465,24.0247836 85.7048293,23.913292 C85.8840121,23.8018005 86.031338,23.639543 86.1468113,23.4265145 C86.2622847,23.213486 86.3200205,22.9676111 86.3200205,22.6888823 C86.3200205,22.3623714 86.2364031,22.0786695 86.0691658,21.8377682 C85.9019286,21.5968668 85.6699898,21.4276412 85.3733427,21.3300861 C85.0766956,21.232531 84.6496497,21.1837542 84.092192,21.1837542 L82.0674364,21.1837542 L82.0674364,24.1940104 Z" id="DATA-LAB" fill="#FFFFFF"></path>
        <path d="M11.2277779,17.040612 C11.2429707,17.0766538 11.2429707,17.0766538 11.2620252,17.1183273 C11.5329102,17.508893 12.011631,17.6463035 12.4641076,17.5586362 C13.4190778,16.9354121 13.7370953,15.5624654 12.8569468,14.9981485 C12.5349068,14.951809 12.4499693,14.9496856 12.3565124,14.9496856 C12.2157701,14.9496856 12.1016759,15.0637798 12.1016759,15.2045221 C12.1016759,15.3452644 12.2157701,15.4593586 12.3565124,15.4593586 C12.4424605,15.4593586 12.5206183,15.4613125 12.7113136,15.467385 C13.0888433,15.752268 12.8713646,16.6911682 12.2725265,17.0975927 C12.0952889,17.1109436 11.820303,17.0320125 11.7003833,16.8619223 C11.7111726,16.8751275 11.7111726,16.8751275 11.697314,16.8423634 C11.6821212,16.8063216 11.6821212,16.8063216 11.6630667,16.7646481 C11.6025569,16.6375774 11.4504928,16.5836192 11.3234222,16.644129 C11.1963515,16.7046389 11.1423933,16.8567029 11.2029031,16.9837736 C11.2139193,17.0078479 11.2139193,17.0078479 11.2277779,17.040612 Z M5.15834723,15.923202 C5.3841421,11.3357518 8.46644362,8.7951592 14.1879962,9.51660795 C18.4745225,10.056919 19.5934504,13.2028498 18.1350278,18.1778753 C16.9995487,22.0512639 14.2180805,26.8286136 11.9358715,29.2707905 C11.8397764,29.3736212 11.8452367,29.5348823 11.9480674,29.6309773 C12.0508981,29.7270724 12.2121592,29.721612 12.3082542,29.6187814 C14.6437916,27.1195381 17.4657959,22.2725652 18.6241186,18.3212517 C20.1591502,13.0848947 18.919409,9.59929042 14.2517466,9.01093763 C8.23776827,8.25261599 4.88977717,11.0122037 4.64929048,15.8981461 C4.43620398,20.2274016 6.79858366,25.4296527 10.3769727,28.4092512 C10.4851295,28.4993095 10.6458147,28.4846378 10.735873,28.376481 C10.8259314,28.2683242 10.8112597,28.1076391 10.7031029,28.0175808 C7.24598214,25.1389581 4.9532527,20.0900854 5.15834723,15.923202 Z M10.6243549,18.7328016 C11.058078,19.1296514 11.3491817,19.2914623 11.7676263,19.236959 C11.9483498,19.1359903 12.0045647,19.1074825 12.1460759,19.0496606 C12.5057882,18.9026898 12.6655546,18.7868457 12.7551353,18.4941089 C13.0191954,17.5944945 12.3844665,16.4953298 11.5037067,16.2248993 C10.756506,16.3515976 10.2183797,16.7535231 10.0496584,17.3052874 C10.064154,17.7352961 10.1720878,18.0866318 10.3463655,18.4551047 C10.4065415,18.5823338 10.5584633,18.6366912 10.6856925,18.5765152 C10.8129216,18.5163393 10.867279,18.3644175 10.807103,18.2371883 C10.6574694,17.9208202 10.5672003,17.6269849 10.5474963,17.3609813 C10.6450313,17.1012099 11.0287632,16.8146012 11.4821577,16.717722 C11.97443,16.9025879 12.4495923,17.72543 12.2669313,18.3477707 C12.2376534,18.4433893 12.1798937,18.4852699 11.9572194,18.5762498 C11.7595664,18.6570115 11.6698272,18.7025201 11.5670145,18.7923732 C11.4815717,18.7602399 11.2975876,18.6579718 10.9684096,18.3567791 C10.8580774,18.2549075 10.8009329,18.2027287 10.742678,18.1527445 C10.635865,18.0610963 10.4749804,18.0733898 10.3833323,18.1802028 C10.2916841,18.2870158 10.3039776,18.4479003 10.4107906,18.5395485 C10.4620777,18.5835541 10.5125088,18.6296029 10.6243549,18.7328016 Z M9.22638971,11.2768447 C13.5853021,8.22852442 16.516898,10.3484402 17.0866896,15.7024283 C17.6389014,20.8912291 15.6313841,26.6973418 12.1675458,28.7484558 C12.1843519,28.7330104 12.1402863,28.7168989 12.0150554,28.634227 C11.8863195,28.5490994 11.7282185,28.5813335 11.6505862,28.6987287 C11.5729539,28.8161239 11.6051881,28.9742249 11.7225833,29.0518572 C11.9694739,29.2148523 12.1257129,29.2719773 12.3578417,29.2152947 C16.0895013,27.0183949 18.1647673,21.01634 17.5935006,15.6484916 C16.9875381,9.95462745 13.6641837,7.55142053 8.93428904,10.8591801 C4.22358478,14.1538586 6.06513756,22.3883538 10.6920581,28.8128956 C10.7743092,28.9271023 10.9335696,28.9530074 11.0477763,28.8707564 C11.161983,28.7885053 11.1878881,28.6292449 11.1056371,28.5150382 C6.62811957,22.2979446 4.84818447,14.3389726 9.22638971,11.2768447 Z M10.9693606,17.423422 C10.9046903,17.5134413 10.8496458,17.5992154 10.7967841,17.6936113 C10.7511005,17.8362307 10.7412746,17.9204715 10.7415832,18.007607 C10.7421394,18.1646005 10.7669467,18.2874886 10.8321188,18.5263596 C10.8467527,18.5798992 10.8467527,18.5798992 10.860188,18.6305672 C11.0582907,18.8918131 11.2533958,18.9860018 11.5868161,19.0788831 C12.3661828,18.9707406 12.6072584,18.5024977 12.8058887,17.5393279 C12.7338676,17.1956447 12.449413,16.8663669 12.2524913,16.7586753 L12.0352253,16.7457914 C11.9660879,16.7735646 11.9139937,16.798353 11.8096804,16.8509935 C11.7898397,16.8610336 11.7898397,16.8610336 11.7705058,16.8707932 C11.6008485,16.9562702 11.5125147,16.9885432 11.4041343,16.9973741 C11.2638569,17.0088042 11.1594054,17.1317873 11.1708354,17.2720648 C11.1822654,17.4123422 11.3052486,17.5167936 11.445526,17.5053636 C11.636254,17.4898228 11.7757417,17.4388607 11.999829,17.3259607 C12.0199812,17.315788 12.0199812,17.315788 12.0396811,17.305819 C12.1359873,17.2573608 12.173592,17.239467 12.2252099,17.2187316 L12.1302176,16.9822615 L12.0079439,17.2058477 C12.092227,17.2519401 12.2866791,17.477033 12.3124715,17.5619329 C12.1500278,18.1961946 11.9838992,18.5188675 11.6123909,18.5821792 C11.4748136,18.518603 11.3554084,18.4609592 11.2953579,18.3949037 C11.3385761,18.4461805 11.3385761,18.4461805 11.3238195,18.3922071 C11.2702614,18.1959038 11.251599,18.1034557 11.251253,18.0058015 C11.2510947,17.9610886 11.2558396,17.9204092 11.2657572,17.8822883 C11.2846615,17.8655237 11.3294217,17.7957754 11.3832906,17.7207913 C11.4380752,17.6445326 11.4681385,17.6060771 11.6241837,17.4101134 C11.7118559,17.3000134 11.6936746,17.1396875 11.5835746,17.0520153 C11.4734747,16.9643432 11.3131488,16.9825245 11.2254766,17.0926244 C11.0629145,17.2967722 11.0312297,17.3373019 10.9693606,17.423422 Z M5.967373,22.1542398 C6.18420688,22.7568608 6.29498781,23.063948 6.4054093,23.3649642 C7.60520608,26.6356888 8.60569969,28.4663089 10.2877314,29.8900558 L10.6619245,29.8405633 C11.0970828,29.2117622 11.6270448,28.5277028 12.3736362,27.6165262 C12.6341311,27.2986055 14.0118129,25.642294 14.4077921,25.1570508 C19.0606687,19.4552965 20.7011481,15.6317586 18.894015,11.573413 C18.8553388,11.4874355 18.8553388,11.4874355 18.8151033,11.4014919 C17.2277715,8.04793214 12.8291859,7.82036152 8.85215606,10.2632186 C4.75996463,12.7768127 3.02010083,16.9228161 5.3742583,20.5520621 C5.45085021,20.6701387 5.6086602,20.7037687 5.72673678,20.6271768 C5.84481336,20.5505849 5.87844334,20.3927749 5.80185143,20.2746983 C3.6292894,16.9254057 5.24399722,13.0776424 9.11891423,10.6975073 C12.8713268,8.39261949 16.9263399,8.60241463 18.3543794,11.619437 C18.3921195,11.7000514 18.3921195,11.7000514 18.4284158,11.7807387 C20.1279903,15.5975359 18.5504317,19.2744214 14.0129134,24.8348128 C13.6188518,25.317706 12.2416065,26.9734928 11.9794008,27.2935014 C11.224814,28.214436 10.6874174,28.9080917 10.2428237,29.5505269 L10.6170167,29.5010343 C9.02148049,28.150501 8.05521505,26.3825088 6.8839041,23.1894384 C6.77403259,22.8899214 6.66379814,22.5843492 6.44677542,21.9812083 C6.18575719,21.258029 6.01107776,20.7885188 5.82492468,20.3193891 C5.7730148,20.1885695 5.6248833,20.1246005 5.49406372,20.1765104 C5.36324413,20.2284203 5.29927518,20.3765518 5.35118506,20.5073714 C5.53490295,20.9703642 5.70802849,21.4356978 5.967373,22.1542398 Z M11.6998744,19.2921601 C13.0281695,19.0639557 14.0688301,17.815764 14.3460545,16.4089667 C14.6473222,14.8801594 13.9584582,13.6495978 12.3833518,13.4312355 C10.6335779,13.9272258 9.31164775,15.606926 9.41106857,17.2484271 C9.41957732,17.388912 9.54036051,17.4958998 9.68084539,17.487391 C9.82133027,17.4788823 9.92831806,17.3580991 9.91980931,17.2176142 C9.83548525,15.8253702 10.9955104,14.3513933 12.4209277,13.927943 C13.5705112,14.1103628 14.0949352,15.0471749 13.8459983,16.3104253 C13.6059951,17.5283409 12.7079837,18.6054358 11.7081348,18.7929075 C10.8567174,18.5829189 10.0801345,17.9596774 9.91472548,17.1801258 C9.88551247,17.0424487 9.75022126,16.9545211 9.6125441,16.9837341 C9.47486695,17.0129471 9.38693938,17.1482383 9.41615239,17.2859155 C9.62846583,18.2865214 10.5686381,19.0410505 11.6998744,19.2921601 Z M6.20654868,25.3474259 C6.32692657,25.5911763 6.32692657,25.5911763 6.44700562,25.8346969 C7.96557524,28.9170663 8.65542662,30.6075067 9.05276471,32.5736894 L9.21853112,33.3939658 L9.5380787,32.6205182 C10.3083503,30.7561176 10.800634,30.0763389 14.9399114,24.7809214 C17.8804462,21.0190668 19.4192606,18.6590158 20.3042453,16.1486479 C21.2063976,13.5895823 21.1680322,11.2641181 20.0356141,9.10660438 C18.0048582,5.24171202 13.1441846,4.84639093 8.62130049,7.50174096 C4.0581122,10.1807532 1.7251408,14.8417048 3.59344917,19.0789163 C3.65023172,19.2076957 3.80065943,19.2660607 3.92943885,19.2092781 C4.05821828,19.1524956 4.11658328,19.0020679 4.05980073,18.8732884 C2.31151318,14.908277 4.51675908,10.5025032 8.87934161,7.94126497 C13.1809779,5.41580785 17.714316,5.78450659 19.5843793,9.34357219 C20.645559,11.3653605 20.6815265,13.5454855 19.8235669,15.9791934 C18.9627447,18.4210213 17.4458382,20.7474726 14.5383588,24.4670391 C10.3531719,29.8211891 9.86419013,30.4964082 9.06702481,32.4259037 L9.5523388,32.4727324 C9.14367048,30.4504834 8.44143827,28.7297046 6.90420489,25.6094517 C6.78393437,25.3655428 6.78393437,25.3655428 6.6635408,25.1217607 C5.17167657,22.1006028 4.55916816,20.6935664 4.07248199,18.9090504 C4.03545024,18.7732673 3.89535612,18.6932136 3.75957303,18.7302453 C3.62378994,18.7672771 3.54373616,18.9073712 3.58076791,19.0431543 C4.07894366,20.8697987 4.70021875,22.2969736 6.20654868,25.3474259 Z M3.8038502,22.9133019 C3.85002508,23.0254293 3.85002508,23.0254293 3.8961814,23.1375337 C5.82935552,27.8333457 6.59807739,30.1172735 6.98689105,32.971463 L7.05969912,33.5059298 L7.42632036,33.1102725 C7.04533626,33.5214302 12.2519456,28.1510498 14.0722049,26.0879985 C16.1449195,23.7388187 17.8333834,21.5582347 19.1160235,19.4921134 C22.9995733,13.2363567 22.813186,8.54828134 17.2182167,6.06455879 C9.9873112,2.85946206 0.249691019,11.4014068 2.45938556,19.5524531 C2.49621069,19.6882924 2.63618284,19.7685592 2.77202212,19.7317341 C2.9078614,19.694909 2.98812823,19.5549368 2.9513031,19.4190976 C0.85301011,11.6789855 10.1761238,3.50065027 17.0115532,6.53045231 C22.2533149,8.85737876 22.4257438,13.1943649 18.6830055,19.2232975 C17.4174717,21.2618633 15.7454522,23.42121 13.6900255,25.7507961 C11.87931,27.8030305 6.67886904,33.1670485 7.05247047,32.7638583 L7.49189978,32.9026678 C7.09533546,29.9915826 6.31688493,27.6787502 4.36747884,22.9435098 C4.32130404,22.8313604 4.32130404,22.8313604 4.27512739,22.7192288 C3.59806997,21.0750976 3.29530846,20.324444 2.94367573,19.3955546 C2.89384817,19.2639278 2.74675035,19.1976164 2.61512355,19.247444 C2.48349676,19.2972715 2.41718537,19.4443693 2.46701293,19.5759961 C2.82094501,20.5109596 3.12494197,21.2646763 3.8038502,22.9133019 Z M13.1747958,16.0530199 C14.0474303,15.2197496 14.0489581,13.5850261 13.2021038,12.7683337 C11.5294385,12.0098954 10.267483,14.1174503 11.1601334,15.4921319 C11.2367825,15.6101715 11.3946087,15.6437251 11.5126482,15.567076 C11.6306877,15.490427 11.6642413,15.3326008 11.5875923,15.2145613 C10.9421712,14.2206128 11.8476113,12.7084639 12.9219216,13.1847363 C13.4869908,13.751141 13.4857749,15.0521448 12.8488476,15.6627528 C12.5049536,15.9091587 12.0219983,15.709065 11.5659625,15.1858969 C11.4734826,15.0798033 11.3125069,15.0687671 11.2064132,15.161247 C11.1003195,15.2537269 11.0892834,15.4147026 11.1817633,15.5207963 C11.7893155,16.2177852 12.5263958,16.5231656 13.1747958,16.0530199 Z M6.27117458,27.7938856 C6.43756907,28.0649592 6.43756907,28.0649592 6.60329268,28.3355396 C7.65334201,30.052399 8.22705008,31.0883535 8.7090652,32.2270448 L9.01226619,32.9433135 L9.19170424,32.1864954 C9.70950472,30.002562 11.188792,28.0096397 14.3386285,24.7771645 C14.6096223,24.4990608 14.7270639,24.379523 15.3543326,23.7422455 C20.938111,18.0693708 22.6594777,15.3011429 21.5678035,11.4611134 C20.0402176,6.07461617 14.4109788,4.83282172 8.81490837,7.63351889 C3.17753647,10.4548865 0.384356621,15.9551477 3.10843944,21.059349 C3.174706,21.1835148 3.32908192,21.2304514 3.4532477,21.1641848 C3.57741349,21.0979183 3.62435008,20.9435423 3.55808352,20.8193765 C0.989348335,16.006255 3.63542584,10.7956642 9.0430145,8.08929753 C14.3871507,5.41468728 19.6527077,6.57625452 21.0775118,11.6003276 C22.0965062,15.1847017 20.4395841,17.8492925 14.9910982,23.3847159 C14.3630967,24.022738 14.2454506,24.142484 13.9735994,24.4214674 C10.7598861,27.7194954 9.24224215,29.7640925 8.69577967,32.068914 L9.17841872,32.0283645 C8.68389292,30.8601186 8.10052794,29.8067264 7.03809074,28.0696125 C6.87196677,27.7983784 6.87196677,27.7983784 6.70557748,27.5273134 C4.79124522,24.4077394 4.02659651,22.8871075 3.58204403,20.8841461 C3.5515487,20.7467473 3.4154436,20.6600849 3.27804478,20.6905802 C3.14064597,20.7210756 3.05398358,20.8571807 3.08447892,20.9945795 C3.54532611,23.0709578 4.32765077,24.6267413 6.27117458,27.7938856 Z M11.4610639,18.9223323 C13.4531821,18.7071777 14.454851,18.0546135 14.5834708,17.0943927 C14.6893809,16.3037121 14.1508095,15.422442 13.2937198,14.795024 C12.4374668,14.1682185 11.4684294,13.945439 10.8315467,14.3403373 C10.0713269,14.8117106 9.94490715,16.0007186 10.5125423,17.8481219 C10.5538796,17.9826567 10.6964522,18.0582083 10.830987,18.0168709 C10.9655219,17.9755336 11.0410734,17.832961 10.9997361,17.6984262 C10.4923748,16.047188 10.5944615,15.0870387 11.1001289,14.7735003 C11.5206524,14.5127552 12.2854578,14.6885822 12.9926656,15.2062817 C13.7146442,15.734794 14.154872,16.4551434 14.0783094,17.0267274 C13.9873818,17.705555 13.1858347,18.2277444 11.5390428,18.439978 C11.4101104,18.3321253 11.228847,18.1105415 10.9801737,17.6518237 C10.9130986,17.5280929 10.7584197,17.4821644 10.6346889,17.5492395 C10.510958,17.6163147 10.4650295,17.7709935 10.5321046,17.8947243 C10.8278309,18.4402389 11.066985,18.7325906 11.4610639,18.9223323 Z M9.19980863,28.9972165 C9.31367367,29.1955579 9.85148127,30.1301092 9.99880149,30.3869178 C10.3049691,30.9206291 10.5493628,31.350442 10.7805014,31.7629806 L11.1793814,31.8221794 C14.8115649,28.3323152 18.1272063,23.5050395 19.4510478,19.2140703 C21.1596998,13.6758143 19.6034265,9.30967696 14.1274441,6.88202308 C8.2409808,5.58667888 2.26535,11.3752559 4.12290437,16.9889246 C4.16711808,17.1225418 4.31127849,17.1950176 4.44489566,17.1508039 C4.57851282,17.1065902 4.65098864,16.9624298 4.60677492,16.8288126 C2.8797012,11.6094662 8.4999024,6.16519282 13.9696079,7.36392067 C19.1421671,9.66270114 20.6014005,13.756592 18.9640262,19.0638154 C17.6686457,23.262534 14.40089,28.0200924 10.8262604,31.4546578 L11.2251404,31.5138566 C10.993037,31.099596 10.7478486,30.6683856 10.4408965,30.1333066 C10.2933577,29.876117 9.75549497,28.94147 9.64182184,28.7434629 C6.60058693,23.4459386 5.24658998,20.4654057 4.6158537,16.864896 C4.59156832,16.7262648 4.45949831,16.6335692 4.32086707,16.6578546 C4.18223584,16.6821399 4.08954021,16.81421 4.11382559,16.9528412 C4.75787275,20.629335 6.13030877,23.6504576 9.19980863,28.9972165 Z M10.3230566,16.9466956 C10.8391624,17.2959563 11.6422185,17.2208883 12.3912732,16.8259376 C13.1444219,16.4288283 13.698849,15.7851654 13.7924736,15.0984696 C13.9054988,14.2694789 13.360401,13.5034444 12.1631602,12.9147206 C11.4442898,12.972612 11.0452988,13.2770563 10.4643855,13.9284653 C10.30348,14.1105002 10.2231685,14.2010582 10.1508404,14.2795158 C10.0554448,14.3829957 10.0619985,14.5442161 10.1654784,14.6396117 C10.2689583,14.7350072 10.4301787,14.7284535 10.5255743,14.6249736 C10.6017964,14.542292 10.6860528,14.4472859 10.8447734,14.2676874 C11.3498942,13.7012686 11.6729045,13.4548002 12.0867479,13.3956797 C12.9571123,13.8730938 13.3666801,14.4486658 13.2874727,15.0296174 C13.2190857,15.5312064 12.7739538,16.0479829 12.1535596,16.3750953 C11.5537001,16.6913805 10.9399494,16.7487526 10.6087042,16.5245914 C10.2317629,16.2695065 10.1680817,15.6210674 10.5765277,14.5424945 C10.6263713,14.4108738 10.5600779,14.2637679 10.4284571,14.2139243 C10.2968364,14.1640807 10.1497305,14.2303742 10.0998869,14.3619949 C9.61765888,15.6354021 9.70538733,16.5287047 10.3230566,16.9466956 Z M7.22261496,29.6870612 C7.67831555,30.3894627 9.20604962,32.7148316 9.32772771,32.9011043 L9.75249563,32.9040212 C10.5786227,31.6764896 11.5710288,30.5074991 13.134356,28.8487715 C13.4489896,28.5149377 14.9174761,26.9739063 14.4730591,27.4410069 C17.7974202,23.9469655 19.3758111,21.896542 20.4505721,19.1820431 C23.8856434,10.5158941 19.3918076,4.24381781 11.8277832,3.96207661 C4.23734053,3.6793514 -0.958588738,9.63107091 1.37793228,18.7761938 C1.41277191,18.9125558 1.55155827,18.994856 1.68792029,18.9600163 C1.8242823,18.9251767 1.90658245,18.7863904 1.87174282,18.6500283 C-0.377945205,9.84476902 4.54914637,4.20099184 11.8088123,4.47139643 C19.0321708,4.74044867 23.277834,10.6661489 19.976727,18.9943267 C18.9332902,21.6297109 17.3850238,23.6410009 14.1038116,27.0896911 C14.5495235,26.6212294 13.0792128,28.1641751 12.7634546,28.4992022 C11.1825657,30.1765631 10.1748922,31.3635377 9.32966182,32.6194546 L9.75442973,32.6223715 C9.63203128,32.4349961 8.10492746,30.1105865 7.65018621,29.4096636 C4.78066192,24.9866757 3.0602205,21.8833306 1.86406089,18.6252826 C1.81555458,18.4931632 1.66912851,18.4253814 1.5370091,18.4738877 C1.4048897,18.522394 1.3371079,18.6688201 1.38561421,18.8009395 C2.59807723,22.1033941 4.3339353,25.2345478 7.22261496,29.6870612 Z" id="Stroke-1" fill="#FFFFFF"></path>
    </g>
</svg>
