
<svg width="1423px" height="189px" viewBox="0 -1 1423 189" version="1.1" xmlns="http://www.w3.org/2000/svg" xmlns:xlink="http://www.w3.org/1999/xlink">
    <!-- Generator: Sketch 40.3 (33839) - http://www.bohemiancoding.com/sketch -->
    <desc>Created with Sketch.</desc>
    <defs></defs>
    <path d="M90.7909302,87.3322683 L169.811103,87.3322683 L169.811103,159.661251 C162.132688,167.094969 151.007424,173.638498 136.43953,179.287617 C121.871636,184.940956 107.105453,187.776063 92.1578568,187.776063 C73.1558889,187.776063 56.6093263,183.806069 42.4844176,175.828112 C28.3637279,167.86703 17.7658275,156.463318 10.6443084,141.650727 C3.54388389,126.833917 0,110.700807 0,93.2809305 C0,74.3591219 3.96999374,57.5678625 11.8973245,42.8649632 C19.8077796,28.1662829 31.4097805,16.893357 46.6864514,9.05040444 C58.3390791,3.017364 72.826814,0.000843781879 90.1623127,0.000843781879 C112.708165,0.000843781879 130.309455,4.73024121 142.983058,14.193255 C155.656662,23.6520499 163.811814,36.7180123 167.440076,53.3827044 L131.018231,60.2046809 C128.444697,51.2901253 123.652015,44.2529844 116.581123,39.0763826 C109.527107,33.9166564 100.709586,31.330465 90.1454371,31.330465 C74.1262381,31.330465 61.3893506,36.405813 51.9305558,46.556509 C42.467542,56.7114239 37.7381445,71.7898061 37.7381445,91.7621231 C37.7381445,113.32075 42.5181689,129.487611 52.1119689,140.24583 C61.6846743,151.025143 74.2443675,156.41691 89.7657352,156.41691 C97.4483692,156.41691 105.14366,154.898102 112.872702,151.881582 C120.601744,148.865062 127.225432,145.224143 132.747984,140.925074 L132.747984,117.88561 L90.7909302,117.88561 L90.7909302,87.3322683 Z" id="Fill-19" stroke="none" fill="#FFFFFF" fill-rule="evenodd"></path>
    <path d="M169.811103,95.0098396 C169.811103,76.5183597 172.578708,60.9927731 178.10126,48.4372988 C182.235791,39.1894494 187.872254,30.9035113 195.010649,23.5330766 C202.1617,16.1837364 209.975121,10.7455622 218.476223,7.1848027 C229.7829,2.40899727 242.836206,-2.27373675e-13 257.619264,-2.27373675e-13 C284.362931,-2.27373675e-13 305.773896,8.3070326 321.822628,24.9042222 C337.892454,41.4971928 345.916819,64.5704083 345.916819,94.1365253 C345.916819,123.453727 337.94308,146.396156 322.004041,162.9385 C306.06922,179.485062 284.776384,187.758344 258.096001,187.758344 C231.082324,187.758344 209.62917,179.518814 193.69013,163.056629 C177.772185,146.590226 169.811103,123.913588 169.811103,95.0098396 M207.582999,93.7736991 C207.582999,114.324007 212.329272,129.912877 221.821818,140.527653 C231.314364,151.142429 243.380445,156.445598 257.994747,156.445598 C272.613268,156.445598 284.611847,151.171961 293.973607,140.658439 C303.348023,130.128041 308.031013,114.340882 308.031013,93.2800867 C308.031013,72.4639878 303.466153,56.9384012 294.353309,46.7075459 C285.21937,36.4724717 273.106881,31.3464968 257.994747,31.3464968 C242.882614,31.3464968 230.706841,36.5230986 221.458992,46.888959 C212.215362,57.2548194 207.582999,72.8943165 207.582999,93.7736991" id="Fill-22" stroke="none" fill="#FFFFFF" fill-rule="evenodd"></path>
    <path d="M463.484745,117.919361 L463.484745,87.3322683 L542.509137,87.3322683 L542.509137,159.661251 C534.830722,167.094969 523.705458,173.638498 509.120688,179.287617 C494.535919,184.940956 479.786611,187.776063 464.839015,187.776063 C445.853923,187.776063 429.290485,183.806069 415.165576,175.828112 C401.044886,167.86703 390.43011,156.463318 383.342343,141.650727 C376.241918,126.833917 372.681158,110.700807 372.681158,93.2809305 C372.681158,74.3591219 376.634277,57.5678625 384.578483,42.8649632 C392.505814,28.1662829 404.107815,16.893357 419.384486,9.05040444 C431.020238,3.017364 445.524848,0.000843781879 462.860347,0.000843781879 C485.406199,0.000843781879 503.007489,4.73024121 515.681092,14.193255 C528.367353,23.6520499 536.526724,36.7180123 540.150767,53.3827044 L503.728922,60.2046809 C501.176482,51.2901253 496.362706,44.2529844 489.296033,39.0763826 C482.242017,33.9166564 473.424496,31.330465 462.860347,31.330465 C446.841148,31.330465 434.10426,36.405813 424.641247,46.556509 C415.182452,56.7114239 410.46993,71.7898061 410.46993,91.7621231 C410.46993,113.32075 415.249954,129.487611 424.82266,140.24583 C434.399584,151.025143 446.955058,156.41691 462.480645,156.41691 C470.15906,156.41691 477.85857,154.898102 485.587612,151.881582 C493.316654,148.865062 499.940342,145.224143 505.47977,140.925074 L505.47977,117.88561 L463.484745,117.88561 L463.484745,117.919361 Z" id="Fill-25" stroke="none" fill="#FFFFFF" fill-rule="evenodd"></path>
    <path d="M572.568445,95.0098396 C572.568445,76.5183597 575.336049,60.9927731 580.875477,48.4372988 C585.010009,39.1894494 590.629596,30.9035113 597.780647,23.5330766 C604.919042,16.1837364 612.745119,10.7455622 621.25044,7.1848027 C632.557118,2.40899727 645.606204,-2.27373675e-13 660.389263,-2.27373675e-13 C687.137148,-2.27373675e-13 708.543895,8.3070326 724.596845,24.9042222 C740.666671,41.4971928 748.691037,64.5704083 748.691037,94.1365253 C748.691037,123.453727 740.713079,146.396156 724.778258,162.9385 C708.843437,179.485062 687.533726,187.758344 660.870219,187.758344 C633.856542,187.758344 612.399168,179.518814 596.464348,163.056629 C580.542184,146.590226 572.568445,123.913588 572.568445,95.0098396 M610.357216,93.7736991 C610.357216,114.324007 615.103489,129.912877 624.596036,140.527653 C634.088582,151.142429 646.150444,156.445598 660.768965,156.445598 C675.387486,156.445598 687.386064,151.171961 696.743605,140.658439 C706.122241,130.128041 710.80523,114.340882 710.80523,93.2800867 C710.80523,72.4639878 706.253027,56.9384012 697.123307,46.7075459 C687.993587,36.4724717 675.881098,31.3464968 660.768965,31.3464968 C645.656831,31.3464968 633.47684,36.5230986 624.233209,46.888959 C614.972703,57.2548194 610.357216,72.8943165 610.357216,93.7736991" id="Fill-28" stroke="none" fill="#FFFFFF" fill-rule="evenodd"></path>
    <path d="M941.162746,117.919361 L941.162746,87.3322683 L1020.18714,87.3322683 L1020.18714,159.661251 C1012.5045,167.094969 1001.37924,173.638498 986.79447,179.287617 C972.226576,184.940956 957.460393,187.776063 942.512797,187.776063 C923.527705,187.776063 906.968485,183.806069 892.843577,175.828112 C878.718668,167.86703 868.124986,156.463318 861.003467,141.650727 C853.898824,126.833917 850.359159,110.700807 850.359159,93.2809305 C850.359159,74.3591219 854.312277,57.5678625 862.239608,42.8649632 C870.166939,28.1662829 881.768939,16.893357 897.04561,9.05040444 C908.698238,3.017364 923.181754,0.000843781879 940.521472,0.000843781879 C963.063105,0.000843781879 980.664395,4.73024121 993.337998,14.193255 C1006.0116,23.6520499 1014.17097,36.7180123 1017.79502,53.3827044 L981.373171,60.2046809 C978.803855,51.2901253 974.006955,44.2529844 966.936063,39.0763826 C959.886266,33.9166564 951.068745,31.330465 940.504596,31.330465 C924.485397,31.330465 911.744291,36.405813 902.285496,46.556509 C892.826701,56.7114239 888.114179,71.7898061 888.114179,91.7621231 C888.114179,113.32075 892.894203,129.487611 902.483784,140.24583 C912.060709,151.025143 924.599308,156.41691 940.124894,156.41691 C947.803309,156.41691 955.502819,154.898102 963.231861,151.881582 C970.944027,148.865062 977.584591,145.224143 983.102924,140.925074 L983.102924,117.88561 L941.162746,117.88561 L941.162746,117.919361 Z" id="Fill-31" stroke="none" fill="#FFFFFF" fill-rule="evenodd"></path>
    <path d="M1246.52277,95.0098396 C1246.52277,76.5183597 1249.29037,60.9927731 1254.8298,48.4372988 C1258.96433,39.1894494 1264.60079,30.9035113 1271.73919,23.5330766 C1278.87336,16.1837364 1286.68678,10.7455622 1295.20476,7.1848027 C1306.51144,2.40899727 1319.56053,-2.27373675e-13 1334.34359,-2.27373675e-13 C1361.09147,-2.27373675e-13 1382.51509,8.3070326 1398.56804,24.9042222 C1414.63787,41.4971928 1422.66223,64.5704083 1422.66223,94.1365253 C1422.66223,123.453727 1414.68428,146.396156 1398.74946,162.9385 C1382.81464,179.485062 1361.5218,187.758344 1334.84142,187.758344 C1307.82774,187.758344 1286.37037,179.518814 1270.43555,163.056629 C1254.48385,146.590226 1246.52277,123.913588 1246.52277,95.0098396 M1284.29466,93.7736991 C1284.29466,114.324007 1289.05781,129.912877 1298.53348,140.527653 C1308.02603,151.142429 1320.08789,156.445598 1334.70641,156.445598 C1349.32493,156.445598 1361.32351,151.171961 1370.68527,140.658439 C1380.05969,130.128041 1384.74268,114.340882 1384.74268,93.2800867 C1384.74268,72.4639878 1380.17782,56.9384012 1371.0481,46.7075459 C1361.91838,36.4724717 1349.80167,31.3464968 1334.68954,31.3464968 C1319.5774,31.3464968 1307.40163,36.5230986 1298.1369,46.888959 C1288.92703,57.2548194 1284.29466,72.8943165 1284.29466,93.7736991" id="Fill-34" stroke="none" fill="#FFFFFF" fill-rule="evenodd"></path>
</svg>
