<?xml version="1.0" encoding="utf-8"?>
<!-- Generator: Adobe Illustrator 16.0.0, SVG Export Plug-In . SVG Version: 6.00 Build 0)  -->
<!DOCTYPE svg PUBLIC "-//W3C//DTD SVG 1.1//EN" "http://www.w3.org/Graphics/SVG/1.1/DTD/svg11.dtd">
<svg version="1.1" id="Layer_1" xmlns="http://www.w3.org/2000/svg" xmlns:xlink="http://www.w3.org/1999/xlink" x="0px" y="0px"
	 width="141.73px" height="141.73px" viewBox="0 0 141.73 141.73" enable-background="new 0 0 141.73 141.73" xml:space="preserve">
<g>
	<path fill="#FFFFFF" d="M70.866,141.232c-38.8,0-70.366-31.566-70.366-70.366C0.5,32.066,32.066,0.5,70.866,0.5
		c38.8,0,70.366,31.566,70.366,70.366C141.232,109.666,109.666,141.232,70.866,141.232z"/>
	<path d="M70.866,1c38.524,0,69.866,31.342,69.866,69.866s-31.342,69.866-69.866,69.866S1,109.391,1,70.866S32.342,1,70.866,1
		 M70.866,0C31.728,0,0,31.728,0,70.866c0,39.138,31.728,70.866,70.866,70.866c39.138,0,70.866-31.729,70.866-70.866
		C141.732,31.728,110.004,0,70.866,0L70.866,0z"/>
</g>
<g>
	<path fill="#C22026" d="M70.866,112.656c-23.043,0-41.791-18.747-41.791-41.79c0-23.043,18.747-41.791,41.791-41.791
		c23.043,0,41.79,18.747,41.79,41.791C112.656,93.909,93.909,112.656,70.866,112.656z"/>
	<path d="M70.866,29.576c22.768,0,41.29,18.523,41.29,41.291s-18.522,41.29-41.29,41.29s-41.291-18.522-41.291-41.29
		S48.099,29.576,70.866,29.576 M70.866,28.576c-23.356,0-42.291,18.934-42.291,42.291s18.934,42.29,42.291,42.29
		s42.29-18.934,42.29-42.29S94.223,28.576,70.866,28.576L70.866,28.576z"/>
</g>
</svg>
